# xmcd
#
# Track frame offsets: 
#        150
#        15048
#        28767
#        44508
#        62321
#        80611
#        97699
#        110136
#        126444
#        139674
#        166431
#
# Disc length: 3170 seconds
#
# Revision: 0
# Processed by: cddbd v1.5.2PL0 Copyright (c) Steve Scherf et al.
# Submitted via: ExactAudioCopy v0.99pb4
#
DISCID=860c600b
DTITLE=Tracy Lawrence - The Rock
DYEAR=2009
DGENRE=Country
TTITLE0=Dear Lord
TTITLE1=Every Prayer
TTITLE2=I'm Done
TTITLE3=The Book You Never Read
TTITLE4=The Rock
TTITLE5=Somebody Who Would Die For You
TTITLE6=Jesus Come Talk To Your Children
TTITLE7=I Know Where Heaven Is
TTITLE8=Up To Him
TTITLE9=Say A Prayer
TTITLE10=Data
EXTD=
EXTT0=
EXTT1=
EXTT2=
EXTT3=
EXTT4=
EXTT5=
EXTT6=
EXTT7=
EXTT8=
EXTT9=
EXTT10=
PLAYORDER=
